<svg xmlns="http://www.w3.org/2000/svg" xmlns:xlink="http://www.w3.org/1999/xlink" width="500" zoomAndPan="magnify" viewBox="0 0 375 374.999991" height="500" preserveAspectRatio="xMidYMid meet" version="1.0"><defs><g/></defs><g fill="#94d3eb" fill-opacity="1"><g transform="translate(105.881342, 167.329387)"><g><path d="M 2.835938 0 L 11.980469 0 L 11.980469 -31.140625 L 42.429688 0 L 55.046875 0 L 55.046875 -40.519531 L 45.902344 -40.519531 L 45.902344 -9.378906 L 15.511719 -40.519531 L 2.835938 -40.519531 Z M 2.835938 0 "/></g></g></g><g fill="#94d3eb" fill-opacity="1"><g transform="translate(163.760743, 167.329387)"><g><path d="M 2.835938 0 L 45.667969 0 L 45.667969 -7.351562 L 11.980469 -7.351562 L 11.980469 -16.785156 L 45.667969 -16.785156 L 45.667969 -23.730469 L 11.980469 -23.730469 L 11.980469 -33.167969 L 45.667969 -33.167969 L 45.667969 -40.519531 L 2.835938 -40.519531 Z M 2.835938 0 "/></g></g></g><g fill="#94d3eb" fill-opacity="1"><g transform="translate(211.684884, 167.329387)"><g><path d="M 27.726562 0.578125 C 45.496094 0.578125 53.195312 -7.121094 53.195312 -20.316406 C 53.195312 -33.457031 45.496094 -41.097656 27.726562 -41.097656 C 9.898438 -41.097656 2.257812 -33.515625 2.257812 -20.316406 C 2.257812 -7.0625 9.898438 0.578125 27.726562 0.578125 Z M 27.726562 -7.121094 C 16.324219 -7.121094 11.402344 -10.941406 11.402344 -20.316406 C 11.402344 -29.636719 16.265625 -33.398438 27.726562 -33.398438 C 39.1875 -33.398438 44.046875 -29.578125 44.046875 -20.316406 C 44.046875 -10.996094 39.128906 -7.121094 27.726562 -7.121094 Z M 27.726562 -7.121094 "/></g></g></g><g fill="#94d3eb" fill-opacity="1"><g transform="translate(267.129783, 167.329387)"><g/></g></g><g fill="#94d3eb" fill-opacity="1"><g transform="translate(294.506738, 167.329387)"><g/></g></g><g fill="#94d3eb" fill-opacity="1"><g transform="translate(321.883693, 167.329387)"><g/></g></g><path stroke-linecap="butt" transform="matrix(0.275329, 0, 0, 0.275329, 0.0000045, 198.584709)" fill="none" stroke-linejoin="miter" d="M 89.665277 155.996536 L 198.980322 155.996536 C 234.505938 155.996536 267.91761 132.445209 267.91761 82.405733 C 267.91761 32.408819 234.505938 8.843305 198.980322 8.843305 L 89.665277 8.843305 Z M 144.329893 109.759322 L 144.329893 55.094706 L 182.153892 55.094706 C 193.95793 55.094706 213.252993 55.094706 213.252993 82.405733 C 213.252993 109.759322 193.95793 109.759322 182.153892 109.759322 Z M 274.231068 155.996536 L 429.797514 155.996536 L 429.797514 113.958836 L 328.895684 113.958836 L 328.895684 100.310416 L 429.797514 100.310416 L 429.797514 64.543612 L 328.895684 64.543612 L 328.895684 50.881005 L 429.797514 50.881005 L 429.797514 8.843305 L 274.231068 8.843305 Z M 436.096784 155.996536 L 490.761401 155.996536 L 490.761401 121.506611 L 522.938756 121.506611 L 543.32626 155.996536 L 608.049847 155.996536 L 582.015699 113.76021 C 598.189502 104.268742 608.049847 86.605247 608.049847 65.210427 C 608.049847 32.408819 585.151147 8.843305 551.739475 8.843305 L 436.096784 8.843305 Z M 490.761401 75.269397 L 490.761401 55.094706 L 541.212316 55.094706 C 546.660333 55.094706 553.38523 55.094706 553.38523 65.210427 C 553.38523 75.269397 546.660333 75.269397 541.212316 75.269397 Z M 673.241622 155.996536 L 754.3802 155.996536 L 815.358274 8.843305 L 755.203078 8.843305 L 713.78963 118.172537 L 672.361994 8.843305 L 612.263548 8.843305 Z M 821.643357 155.996536 L 876.307974 155.996536 L 876.307974 8.843305 L 821.643357 8.843305 Z M 976.585551 158.11048 C 1036.882624 158.11048 1070.563859 147.781947 1070.563859 107.233939 C 1070.563859 68.743126 1034.584241 64.742238 976.585551 62.429668 C 944.606822 61.195351 939.371617 61.408164 939.371617 55.704771 C 939.371617 50.058127 944.606822 48.781248 970.272093 48.781248 C 996.958868 48.781248 1009.585784 50.469566 1009.585784 58.230154 L 1064.250401 58.230154 C 1064.250401 20.604781 1031.860232 6.743548 974.471607 6.743548 C 916.430355 6.743548 884.707001 20.604781 884.707001 52.994949 C 884.707001 87.272061 910.159459 98.21066 976.585551 100.310416 C 1011.075477 101.33192 1015.899243 102.154797 1015.899243 108.468256 C 1015.899243 113.958836 1011.075477 116.07278 978.685308 116.07278 C 943.996757 116.07278 937.27186 111.249015 937.27186 104.055929 L 882.607244 104.055929 C 882.607244 147.781947 916.217542 158.11048 976.585551 158.11048 Z M 1076.848942 155.996536 L 1131.513558 155.996536 L 1131.513558 105.545621 L 1217.688715 105.545621 L 1217.688715 155.996536 L 1272.353331 155.996536 L 1272.353331 8.843305 L 1217.688715 8.843305 L 1217.688715 59.308407 L 1131.513558 59.308407 L 1131.513558 8.843305 L 1076.848942 8.843305 Z M 1076.848942 155.996536 " stroke="#94d3eb" stroke-width="6.04417" stroke-opacity="1" stroke-miterlimit="4"/></svg>